<svg viewBox="0 0 400 120" xmlns="http://www.w3.org/2000/svg">
  <defs>
    <!-- Gradients for 3D effect -->
    <linearGradient id="purpleGradient" x1="0%" y1="0%" x2="100%" y2="100%">
      <stop offset="0%" style="stop-color:#a855f7;stop-opacity:1" />
      <stop offset="50%" style="stop-color:#8b5cf6;stop-opacity:1" />
      <stop offset="100%" style="stop-color:#7c3aed;stop-opacity:1" />
    </linearGradient>
    
    <linearGradient id="shadowGradient" x1="0%" y1="0%" x2="100%" y2="100%">
      <stop offset="0%" style="stop-color:#1f2937;stop-opacity:0.8" />
      <stop offset="100%" style="stop-color:#000000;stop-opacity:0.6" />
    </linearGradient>
  </defs>
  
  <!-- Shadow layer (offset for 3D effect) -->
  <g transform="translate(4, 4)">
    <!-- R shadow -->
    <path d="M15 20 L15 80 L25 80 L25 50 L45 50 C55 50 60 45 60 35 C60 25 55 20 45 20 Z M25 30 L42 30 C47 30 50 32 50 35 C50 38 47 40 42 40 L25 40 Z" fill="url(#shadowGradient)"/>
    <path d="M50 50 L65 80 L75 80 L58 50" fill="url(#shadowGradient)"/>
    
    <!-- E shadow -->
    <path d="M85 20 L85 80 L135 80 L135 70 L95 70 L95 55 L125 55 L125 45 L95 45 L95 30 L135 30 L135 20 Z" fill="url(#shadowGradient)"/>
    
    <!-- A shadow -->
    <path d="M155 20 L145 80 L155 80 L157 70 L173 70 L175 80 L185 80 L175 20 Z M160 40 L170 40 L168 50 L162 50 Z" fill="url(#shadowGradient)"/>
    
    <!-- D shadow -->
    <path d="M205 20 L205 80 L235 80 C250 80 260 70 260 50 C260 30 250 20 235 20 Z M215 30 L232 30 C242 30 250 35 250 50 C250 65 242 70 232 70 L215 70 Z" fill="url(#shadowGradient)"/>
    
    <!-- S shadow -->
    <path d="M280 20 C270 20 265 25 265 35 L275 35 C275 30 277 30 280 30 L300 30 C305 30 310 32 310 35 C310 38 305 40 300 40 L285 40 C275 40 270 45 270 50 C270 55 275 60 285 60 L300 60 C305 60 310 62 310 65 C310 68 305 70 300 70 L280 70 C277 70 275 68 275 65 L265 65 C265 75 270 80 280 80 L300 80 C310 80 320 75 320 65 C320 58 315 53 305 53 L285 53 C282 53 280 52 280 50 C280 48 282 47 285 47 L300 47 C310 47 320 42 320 35 C320 25 310 20 300 20 L280 20 Z" fill="url(#shadowGradient)"/>
    
    <!-- Y shadow -->
    <path d="M340 20 L350 45 L350 80 L360 80 L360 45 L370 20 L380 20 L365 50 L365 80 L375 80 L375 50 L390 20 Z" fill="url(#shadowGradient)"/>
  </g>
  
  <!-- Main text layer -->
  <g>
    <!-- R -->
    <path d="M15 20 L15 80 L25 80 L25 50 L45 50 C55 50 60 45 60 35 C60 25 55 20 45 20 Z M25 30 L42 30 C47 30 50 32 50 35 C50 38 47 40 42 40 L25 40 Z" fill="url(#purpleGradient)"/>
    <path d="M50 50 L65 80 L75 80 L58 50" fill="url(#purpleGradient)"/>
    
    <!-- E -->
    <path d="M85 20 L85 80 L135 80 L135 70 L95 70 L95 55 L125 55 L125 45 L95 45 L95 30 L135 30 L135 20 Z" fill="url(#purpleGradient)"/>
    
    <!-- A -->
    <path d="M155 20 L145 80 L155 80 L157 70 L173 70 L175 80 L185 80 L175 20 Z M160 40 L170 40 L168 50 L162 50 Z" fill="url(#purpleGradient)"/>
    
    <!-- D -->
    <path d="M205 20 L205 80 L235 80 C250 80 260 70 260 50 C260 30 250 20 235 20 Z M215 30 L232 30 C242 30 250 35 250 50 C250 65 242 70 232 70 L215 70 Z" fill="url(#purpleGradient)"/>
    
    <!-- S -->
    <path d="M280 20 C270 20 265 25 265 35 L275 35 C275 30 277 30 280 30 L300 30 C305 30 310 32 310 35 C310 38 305 40 300 40 L285 40 C275 40 270 45 270 50 C270 55 275 60 285 60 L300 60 C305 60 310 62 310 65 C310 68 305 70 300 70 L280 70 C277 70 275 68 275 65 L265 65 C265 75 270 80 280 80 L300 80 C310 80 320 75 320 65 C320 58 315 53 305 53 L285 53 C282 53 280 52 280 50 C280 48 282 47 285 47 L300 47 C310 47 320 42 320 35 C320 25 310 20 300 20 L280 20 Z" fill="url(#purpleGradient)"/>
    
    <!-- Y -->
    <path d="M340 20 L350 45 L350 80 L360 80 L360 45 L370 20 L380 20 L365 50 L365 80 L375 80 L375 50 L390 20 Z" fill="url(#purpleGradient)"/>
  </g>
  
  <!-- Highlight layer for extra 3D effect -->
  <g opacity="0.3">
    <!-- R highlight -->
    <path d="M15 20 L15 25 L25 25 L25 20 Z M25 30 L42 30 L42 35 L25 35 Z" fill="white"/>
    
    <!-- E highlight -->
    <path d="M85 20 L85 25 L135 25 L135 20 Z M95 45 L125 45 L125 50 L95 50 Z" fill="white"/>
    
    <!-- A highlight -->
    <path d="M155 20 L155 25 L175 25 L175 20 Z" fill="white"/>
    
    <!-- D highlight -->
    <path d="M205 20 L205 25 L235 25 L235 20 Z" fill="white"/>
    
    <!-- S highlight -->
    <path d="M280 20 L305 20 L305 25 L280 25 Z" fill="white"/>
    
    <!-- Y highlight -->
    <path d="M340 20 L340 25 L380 25 L380 20 Z" fill="white"/>
  </g>
</svg>